<mxfile host="app.diagrams.net" agent="Mozilla/5.0 (Macintosh; Intel Mac OS X 10_15_7) AppleWebKit/537.36 (KHTML, like Gecko) Chrome/135.0.0.0 Safari/537.36" version="26.2.14">
  <diagram name="Page-1" id="pXoWM0Lo5M7d6n0rzrD5">
    <mxGraphModel dx="452" dy="306" grid="1" gridSize="10" guides="1" tooltips="1" connect="1" arrows="1" fold="1" page="1" pageScale="1" pageWidth="3300" pageHeight="4681" math="0" shadow="0">
      <root>
        <mxCell id="0" />
        <mxCell id="1" parent="0" />
        <mxCell id="hrem9brc0uJo8NUHdfwz-12" style="edgeStyle=orthogonalEdgeStyle;rounded=0;orthogonalLoop=1;jettySize=auto;html=1;exitX=0.5;exitY=1;exitDx=0;exitDy=0;" edge="1" parent="1" source="hrem9brc0uJo8NUHdfwz-24" target="hrem9brc0uJo8NUHdfwz-8">
          <mxGeometry relative="1" as="geometry">
            <mxPoint x="535" y="220" as="sourcePoint" />
          </mxGeometry>
        </mxCell>
        <mxCell id="hrem9brc0uJo8NUHdfwz-13" value="triggers new Action" style="edgeLabel;html=1;align=center;verticalAlign=middle;resizable=0;points=[];" vertex="1" connectable="0" parent="hrem9brc0uJo8NUHdfwz-12">
          <mxGeometry x="-0.2615" relative="1" as="geometry">
            <mxPoint y="15" as="offset" />
          </mxGeometry>
        </mxCell>
        <mxCell id="hrem9brc0uJo8NUHdfwz-19" style="edgeStyle=orthogonalEdgeStyle;rounded=0;orthogonalLoop=1;jettySize=auto;html=1;startArrow=classic;startFill=1;endArrow=none;exitX=0.52;exitY=-0.065;exitDx=0;exitDy=0;exitPerimeter=0;" edge="1" parent="1" source="hrem9brc0uJo8NUHdfwz-24" target="hrem9brc0uJo8NUHdfwz-18">
          <mxGeometry relative="1" as="geometry">
            <mxPoint x="535" y="180" as="sourcePoint" />
          </mxGeometry>
        </mxCell>
        <mxCell id="hrem9brc0uJo8NUHdfwz-20" value="Polls for manifest updates" style="edgeLabel;html=1;align=center;verticalAlign=middle;resizable=0;points=[];" vertex="1" connectable="0" parent="hrem9brc0uJo8NUHdfwz-19">
          <mxGeometry x="-0.3231" relative="1" as="geometry">
            <mxPoint y="-6" as="offset" />
          </mxGeometry>
        </mxCell>
        <mxCell id="hrem9brc0uJo8NUHdfwz-2" value="Azure&lt;div&gt;Container&lt;/div&gt;&lt;div&gt;Registry&lt;/div&gt;" style="image;aspect=fixed;html=1;points=[];align=center;fontSize=12;image=img/lib/azure2/containers/Container_Registries.svg;" vertex="1" parent="1">
          <mxGeometry x="680" y="320" width="44.59" height="40" as="geometry" />
        </mxCell>
        <mxCell id="hrem9brc0uJo8NUHdfwz-6" value="Poll for new digest" style="edgeStyle=orthogonalEdgeStyle;rounded=0;orthogonalLoop=1;jettySize=auto;html=1;labelPosition=center;verticalLabelPosition=top;align=center;verticalAlign=bottom;" edge="1" parent="1" source="hrem9brc0uJo8NUHdfwz-5" target="hrem9brc0uJo8NUHdfwz-2">
          <mxGeometry relative="1" as="geometry" />
        </mxCell>
        <mxCell id="hrem9brc0uJo8NUHdfwz-16" style="edgeStyle=orthogonalEdgeStyle;rounded=0;orthogonalLoop=1;jettySize=auto;html=1;entryX=1;entryY=0.5;entryDx=0;entryDy=0;" edge="1" parent="1" source="hrem9brc0uJo8NUHdfwz-5" target="hrem9brc0uJo8NUHdfwz-24">
          <mxGeometry relative="1" as="geometry">
            <mxPoint x="555.5" y="200" as="targetPoint" />
            <Array as="points">
              <mxPoint x="863" y="200" />
            </Array>
          </mxGeometry>
        </mxCell>
        <mxCell id="hrem9brc0uJo8NUHdfwz-17" value="Updates Manifest" style="edgeLabel;html=1;align=center;verticalAlign=middle;resizable=0;points=[];" vertex="1" connectable="0" parent="hrem9brc0uJo8NUHdfwz-16">
          <mxGeometry x="-0.0124" y="-1" relative="1" as="geometry">
            <mxPoint x="-65" y="1" as="offset" />
          </mxGeometry>
        </mxCell>
        <mxCell id="hrem9brc0uJo8NUHdfwz-5" value="ArgoCD&#xa;Image&#xa;Updater" style="shape=image;verticalLabelPosition=bottom;labelBackgroundColor=default;verticalAlign=top;aspect=fixed;imageAspect=0;editableCssRules=.*;image=data:image/svg+xml,PHN2ZyB4bWxuczp4bGluaz0iaHR0cDovL3d3dy53My5vcmcvMTk5OS94bGluayIgeG1sbnM9Imh0dHA6Ly93d3cudzMub3JnLzIwMDAvc3ZnIiB2aWV3Qm94PSIxNS4xMjkwODI2Nzk3NDg1MzUgMS42MDIwMDExOTAxODU1NDY5IDk2LjkyNTc5NjUwODc4OTA2IDEyNC41NTAwMDMwNTE3NTc4MSIgd2lkdGg9Ijk2LjkyNTc5NjUwODc4OTA2IiBoZWlnaHQ9IjEyNC41NTAwMDMwNTE3NTc4MSI+PGRlZnM+PGNsaXBQYXRoIGlkPSJhcmdvY2Qtb3JpZ2luYWwtZSI+PHBhdGggZD0iTTQyIDQxaDQ0djUxSDQyem0wIDAiLz48L2NsaXBQYXRoPjxjbGlwUGF0aCBpZD0iYXJnb2NkLW9yaWdpbmFsLWQiPjxwYXRoIGQ9Ik0wIDBoMTI4djEyOEgweiIvPjwvY2xpcFBhdGg+PGNsaXBQYXRoIGlkPSJhcmdvY2Qtb3JpZ2luYWwtYyI+PHBhdGggZD0iTTAgMGgxMjh2MTI4SDB6Ii8+PC9jbGlwUGF0aD48Y2xpcFBhdGggaWQ9ImFyZ29jZC1vcmlnaW5hbC1mIj48cGF0aCBkPSJNODUuNjk1IDQxLjEzM2wtMi41NSA1OC4yMzhINDQuODg3bC0yLjEyNS01OC4yMzgiLz48L2NsaXBQYXRoPjxjbGlwUGF0aCBpZD0iYXJnb2NkLW9yaWdpbmFsLWIiPjxwYXRoIGQ9Ik0wIDBoMTI4djEyOEgweiIvPjwvY2xpcFBhdGg+PG1hc2sgaWQ9ImFyZ29jZC1vcmlnaW5hbC1sIj48ZyBmaWx0ZXI9InVybCgjYXJnb2NkLW9yaWdpbmFsLWEpIj48cGF0aCBmaWxsLW9wYWNpdHk9Ii4yNTEiIGQ9Ik0wIDBoMTI4djEyOEgweiIvPjwvZz48L21hc2s+PG1hc2sgaWQ9ImFyZ29jZC1vcmlnaW5hbC1oIj48ZyBmaWx0ZXI9InVybCgjYXJnb2NkLW9yaWdpbmFsLWEpIj48cGF0aCBmaWxsLW9wYWNpdHk9Ii4yMiIgZD0iTTAgMGgxMjh2MTI4SDB6Ii8+PC9nPjwvbWFzaz48bWFzayBpZD0iYXJnb2NkLW9yaWdpbmFsLWoiPjxnIGZpbHRlcj0idXJsKCNhcmdvY2Qtb3JpZ2luYWwtYSkiPjxwYXRoIGZpbGwtb3BhY2l0eT0iLjUwMiIgZD0iTTAgMGgxMjh2MTI4SDB6Ii8+PC9nPjwvbWFzaz48ZyBjbGlwLXBhdGg9InVybCgjYXJnb2NkLW9yaWdpbmFsLWIpIiBpZD0iYXJnb2NkLW9yaWdpbmFsLWkiPjxwYXRoIGZpbGw9IiNmYmRmYzMiIGQ9Ik01OC40ODggMzAuNTA4YTIuOTc0IDIuOTc0IDAgMTEtNS45NDgtLjAwMyAyLjk3NCAyLjk3NCAwIDAxNS45NDguMDAzem0wIDAiLz48L2c+PGcgY2xpcC1wYXRoPSJ1cmwoI2FyZ29jZC1vcmlnaW5hbC1jKSIgaWQ9ImFyZ29jZC1vcmlnaW5hbC1nIj48cGF0aCBmaWxsPSIjZTM0ZTNiIiBkPSJNODQuNDIyIDY1LjM2M3MyLjU1LTIyLjUzMS0uODUyLTMxLjAzMUM3Ny4xOTUgMTkuNDUzIDYyLjMxNiAyMC43MyA2Mi4zMTYgMjAuNzNzOC41IDMuMzk5IDguOTI2IDE2LjE1M2MuNDI2IDguOTI2IDAgMjIuMTA1IDAgMjIuMTA1em0wIDAiLz48L2c+PGcgY2xpcC1wYXRoPSJ1cmwoI2FyZ29jZC1vcmlnaW5hbC1kKSIgaWQ9ImFyZ29jZC1vcmlnaW5hbC1rIj48cGF0aCBmaWxsPSIjZTk2NTRiIiBkPSJNODMuMTQ1IDkwLjg2N1Y4Ny40N2MtNS45NSAzLjM5OC0xMi4zMjkgNi44LTE5Ljk3NyA2LjgtOC41MDQgMC0xNC4wMzEtMy44MjQtMTkuNTU1LTYuOGwuNDIyIDMuMzk4czYuMzggNi44MDUgMTkuNTU1IDYuODA1YzEyLjMyOC0uNDI2IDE5LjU1NS02LjgwNSAxOS41NTUtNi44MDV6bTAgMCIvPjwvZz48ZmlsdGVyIGhlaWdodD0iMTAwJSIgd2lkdGg9IjEwMCUiIHk9IjAlIiB4PSIwJSIgZmlsdGVyVW5pdHM9Im9iamVjdEJvdW5kaW5nQm94IiBpZD0iYXJnb2NkLW9yaWdpbmFsLWEiPjxmZUNvbG9yTWF0cml4IHZhbHVlcz0iMCAwIDAgMCAxIDAgMCAwIDAgMSAwIDAgMCAwIDEgMCAwIDAgMSAwIiBpbj0iU291cmNlR3JhcGhpYyIvPjwvZmlsdGVyPjwvZGVmcz48cGF0aCBmaWxsPSIjZTk2NTRiIiBkPSJNNDQuMDM1IDg5LjU5NHMtLjg0NyAyLjU1LTIuMTI1IDMuODI0YTMuODQ0IDMuODQ0IDAgMDEtMi45NzIgMS4yNzcgNDkuOTQ2IDQ5Ljk0NiAwIDAxLTYuMzggMS4yNzRzMi45NzcuNDI2IDYuMzguODUxYzEuMjczIDAgMS4yNzMgMCAyLjEyNC40MjYgMi4xMjYgMCAyLjk3My0xLjI3NyAyLjk3My0xLjI3N3ptMzkuMTEgMHMuODUxIDIuNTUgMi4xMjUgMy44MjRhMy44NTggMy44NTggMCAwMDIuOTc2IDEuMjc3IDQ5LjggNDkuOCAwIDAwNi4zNzUgMS4yNzRzLTIuOTczLjQyNi02LjguODUxYy0xLjI3NCAwLTEuMjc0IDAtMi4xMjYuNDI2LTIuNTUgMC0yLjk3Ni0xLjI3Ny0yLjk3Ni0xLjI3N3ptMCAwIi8+PHBhdGggZmlsbD0iI2I2Y2ZlYSIgZD0iTTEwOS45MjYgNDcuNTA4YzAgMjUuMzU1LTIwLjU1NSA0NS45MS00NS45MSA0NS45MS0yNS4zNTYgMC00NS45MS0yMC41NTUtNDUuOTEtNDUuOTEgMC0yNS4zNTIgMjAuNTU0LTQ1LjkwNiA0NS45MS00NS45MDYgMjUuMzU1IDAgNDUuOTEgMjAuNTU0IDQ1LjkxIDQ1LjkwNnptMCAwIi8+PHBhdGggZmlsbD0iI2U2ZjVmOCIgZD0iTTEwOC4yMjcgNDcuNTA4YzAgMjQuNDE4LTE5Ljc5MyA0NC4yMS00NC4yMTEgNDQuMjEtMjQuNDE0IDAtNDQuMjA3LTE5Ljc5Mi00NC4yMDctNDQuMjFDMTkuODA5IDIzLjA5NCAzOS42MDIgMy4zIDY0LjAxNiAzLjNjMjQuNDE4IDAgNDQuMjEgMTkuNzkzIDQ0LjIxIDQ0LjIwN3ptMCAwIi8+PHBhdGggZmlsbD0iI2QwZThmMCIgZD0iTTEwMC4xNDggNDguMzZjMCAxOS45NTYtMTYuMTc1IDM2LjEzMi0zNi4xMzIgMzYuMTMyLTE5Ljk1NCAwLTM2LjEzMy0xNi4xNzYtMzYuMTMzLTM2LjEzMyAwLTE5Ljk1MyAxNi4xOC0zNi4xMzIgMzYuMTMzLTM2LjEzMiAxOS45NTcgMCAzNi4xMzIgMTYuMTggMzYuMTMyIDM2LjEzMnptMCAwIi8+PHBhdGggZmlsbD0iI2VlNzk0YiIgZD0iTTQyLjc2MiA2NS4zNjNzMi45NzYgNDguMDM1IDIuOTc2IDQ4Ljg4N2MwIC40MjIuNDI2IDEuMjczLTEuNzAzIDIuMTI1LTIuMTI1Ljg0OC04LjkyNiAyLjU1LTguOTI2IDIuNTVoMTAuMjAzYzQuNjc2IDAgNC42NzYtMy44MjcgNC42NzYtNC42NzUgMC0uODUyIDEuMjc0LTE5LjEyOSAxLjI3NC0xOS4xMjlzLjQyNSAyMS42OC40MjUgMjIuNTI3YzAgLjg1Mi0uNDI1IDIuMTI1LTMuMzk4IDIuOTc3LTIuMTI1LjQyNi04LjUwNCAxLjctOC41MDQgMS43aDkuNzc4YzUuOTUzIDAgNS45NTMtMy44MjUgNS45NTMtMy44MjVsMS4yNzMtMTkuMTI5cy40MjYgMTkuMTI5LjQyNiAyMS4yNTRjMCAxLjctMS4yNzQgMi45NzctNS45NTMgMy44MjQtMi45NzMuODUyLTYuODAxIDEuNzAzLTYuODAxIDEuNzAzaDExLjA1NWM1LjUyMy0uNDI1IDYuMzc1LTQuMjU0IDYuMzc1LTQuMjU0bDkuMzUxLTQ3LjYwOXptMCAwIi8+PHBhdGggZmlsbD0iI2VlNzk0YiIgZD0iTTg1LjI3IDY1LjM2M3MtMi45NzMgNDguMDM1LTIuOTczIDQ4Ljg4N2MwIC40MjItLjQyNiAxLjI3MyAxLjcgMi4xMjUgMi4xMjQuODQ4IDguOTI1IDIuNTUgOC45MjUgMi41NUg4Mi43MTljLTQuNjc2IDAtNC42NzYtMy44MjctNC42NzYtNC42NzUgMC0uODUyLTEuMjczLTE5LjEyOS0xLjI3My0xOS4xMjlzLS40MjYgMjEuNjgtLjQyNiAyMi41MjdjMCAuODUyLjQyNiAyLjEyNSAzLjQwMiAyLjk3N2w4LjUgMS43SDc4LjQ3Yy01Ljk1IDAtNS45NS0zLjgyNS01Ljk1LTMuODI1bC0xLjI3Ny0xOS4xMjlzLS40MjYgMTkuMTI5LS40MjYgMjEuMjU0YzAgMS43IDEuMjc4IDIuOTc3IDUuOTU0IDMuODI0IDIuOTc2Ljg1MiA2LjggMS43MDMgNi44IDEuNzAzSDcyLjUyYy01LjUyOC0uNDI1LTYuMzgtNC4yNTQtNi4zOC00LjI1NEw1Ni43OSA3NC4yOXptLjQyNS0yMy4zNzljMCAxMS45MDMtOS43NzcgMjEuMjU0LTIxLjI1NCAyMS4yNTQtMTEuNDc2IDAtMjEuMjU0LTkuNzc3LTIxLjI1NC0yMS4yNTQgMC0xMS40NzYgOS43NzgtMjEuMjU0IDIxLjI1NC0yMS4yNTQgMTEuNDc3IDAgMjEuMjU0IDkuMzUyIDIxLjI1NCAyMS4yNTR6bTAgMCIvPjxnIGNsaXAtcGF0aD0idXJsKCNhcmdvY2Qtb3JpZ2luYWwtZSkiPjxnIGNsaXAtcGF0aD0idXJsKCNhcmdvY2Qtb3JpZ2luYWwtZikiPjxwYXRoIGZpbGw9IiNlZTc5NGIiIGQ9Ik0xMDIuMjczIDUzLjQ2YzAgMjAuODk1LTE2LjkzNyAzNy44MzMtMzcuODMyIDM3LjgzMy0yMC44OTQgMC0zNy44MzItMTYuOTM4LTM3LjgzMi0zNy44MzIgMC0yMC44OTUgMTYuOTM4LTM3LjgzMiAzNy44MzItMzcuODMyIDIwLjg5NSAwIDM3LjgzMiAxNi45MzcgMzcuODMyIDM3LjgzMnptMCAwIi8+PC9nPjwvZz48dXNlIG1hc2s9InVybCgjYXJnb2NkLW9yaWdpbmFsLWgpIiB4bGluazpocmVmPSIjYXJnb2NkLW9yaWdpbmFsLWciLz48dXNlIG1hc2s9InVybCgjYXJnb2NkLW9yaWdpbmFsLWopIiB4bGluazpocmVmPSIjYXJnb2NkLW9yaWdpbmFsLWkiLz48cGF0aCBmaWxsPSIjMDEwMTAxIiBkPSJNNzEuNjY4IDczLjg2M2MwIDcuMjI3LTMuNDAyIDExLjkwNy03LjY1MiAxMS45MDdzLTcuNjUzLTUuNTI4LTcuNjUzLTEyLjc1NGMwIDAgMy40MDMgNi44IDguMDc4IDYuOCA0LjY3NiAwIDcuMjI3LTUuOTUzIDcuMjI3LTUuOTUzem0wIDAiLz48cGF0aCBmaWxsPSIjZmZmIiBkPSJNNzEuNjY4IDczLjg2M2MwIDQuNjgtMy40MDIgNy4yMjctNy42NTIgNy4yMjdzLTcuMjI3LTMuMzk5LTcuMjI3LTcuNjQ5YzAgMCAzLjQwMiA0LjI1IDguMDc4IDQuMjUgNC42NzYgMCA2LjgwMS0zLjgyOCA2LjgwMS0zLjgyOHptMCAwIi8+PHBhdGggZmlsbD0iI2U5NjU0YiIgZD0iTTkyLjA3IDUzLjg4N2MwIDcuMjc3LTUuODk4IDEzLjE3NS0xMy4xNzUgMTMuMTc1LTcuMjc4IDAtMTMuMTgtNS44OTgtMTMuMTgtMTMuMTc1IDAtNy4yNzggNS45MDItMTMuMTggMTMuMTgtMTMuMTggNy4yNzcgMCAxMy4xNzUgNS45MDIgMTMuMTc1IDEzLjE4em0tMjkuNzU0IDBjMCA3LjI3Ny01LjkwMiAxMy4xNzUtMTMuMTggMTMuMTc1LTcuMjc3IDAtMTMuMTc1LTUuODk4LTEzLjE3NS0xMy4xNzUgMC03LjI3OCA1Ljg5OC0xMy4xOCAxMy4xNzYtMTMuMTggNy4yNzcgMCAxMy4xOCA1LjkwMiAxMy4xOCAxMy4xOHptMCAwIi8+PHBhdGggZmlsbD0iI2ZmZiIgZD0iTTg5LjA5OCA1My44ODdjMCA1LjYzMy00LjU3IDEwLjIwMy0xMC4yMDMgMTAuMjAzLTUuNjMzIDAtMTAuMjA0LTQuNTctMTAuMjA0LTEwLjIwMyAwLTUuNjM3IDQuNTctMTAuMjAzIDEwLjIwNC0xMC4yMDMgNS42MzIgMCAxMC4yMDMgNC41NjYgMTAuMjAzIDEwLjIwM3ptLTMwLjYxIDBjMCA1LjYzMy00LjU2NiAxMC4yMDMtMTAuMTk5IDEwLjIwMy01LjYzNyAwLTEwLjIwMy00LjU3LTEwLjIwMy0xMC4yMDNhMTAuMjAxIDEwLjIwMSAwIDAxMTAuMjAzLTEwLjIwM2M1LjYzMyAwIDEwLjIgNC41NjYgMTAuMiAxMC4yMDN6bTAgMCIvPjxwYXRoIGZpbGw9IiMwMTAxMDEiIGQ9Ik01MS4yNjIgNTIuNjFhMi45NzUgMi45NzUgMCAxMS01Ljk1LjAwMyAyLjk3NSAyLjk3NSAwIDAxNS45NS0uMDA0em0zMC42MDkgMGEyLjk3NiAyLjk3NiAwIDExLTUuOTUxLjAwMSAyLjk3NiAyLjk3NiAwIDAxNS45NTEtLjAwMnptMCAwIi8+PHBhdGggZmlsbD0iI2I2Y2ZlYSIgZD0iTTE3LjI1OCA1OC45ODhhMi4wMDUgMi4wMDUgMCAwMS0yLjEyNS0yLjEyNVYzOS44NmEyLjAwOCAyLjAwOCAwIDAxLjU4Mi0xLjU0MyAyLjAwOCAyLjAwOCAwIDAxMS41NDMtLjU4MiAyLjAwNSAyLjAwNSAwIDAxMi4xMjUgMi4xMjV2MTcuMDA0Yy4wMzUuNTctLjE4IDEuMTMzLS41ODYgMS41NGEyLjAwOCAyLjAwOCAwIDAxLTEuNTQuNTg1em05Mi42NjggMGEyLjAwMyAyLjAwMyAwIDAxLTEuNTQtLjU4NiAyLjAwOCAyLjAwOCAwIDAxLS41ODUtMS41MzlWMzkuODZhMi4wMTEgMi4wMTEgMCAwMS41ODYtMS41NDMgMiAyIDAgMDExLjUzOS0uNTgyIDIgMiAwIDAxMS41MzkuNTgyYy40MS40MDcuNjIuOTcuNTg2IDEuNTQzdjE3LjAwNGExLjk5NCAxLjk5NCAwIDAxLS41ODYgMS41NCAyLjAwMyAyLjAwMyAwIDAxLTEuNTQuNTg1em0wIDAiLz48cGF0aCBmaWxsPSIjZmZmIiBkPSJNNTEuNjg4IDEzLjUwNGEyLjEyNSAyLjEyNSAwIDExLTQuMjUgMCAyLjEyNSAyLjEyNSAwIDAxNC4yNSAwek0zNC4yNjIgNzAuODlhMS41NTkgMS41NTkgMCAwMS0xLjI3OC0uNDI1Yy01LjEwMS02LjM3NS03LjY1Mi0xNC40NTMtNy42NTItMjIuNTMxYTM3LjkzMyAzNy45MzMgMCAwMTUuMTAyLTE5LjEzIDQxLjY0MSA0MS42NDEgMCAwMTEzLjYwMS0xMy42IDEuODczIDEuODczIDAgMDEyLjEzLjQyNSAxLjg3NCAxLjg3NCAwIDAxLS40MjcgMi4xMjUgMzQuMzA1IDM0LjMwNSAwIDAwLTE3LjQzIDI5Ljc1NCAzMy40ODcgMzMuNDg3IDAgMDA3LjIyNyAyMC44MzJjLjQyNi40MjYuNDI2IDEuNy0uNDI2IDIuMTI1LS40MjUuNDI2LS40MjUuNDI2LS44NDcuNDI2em0wIDAiLz48dXNlIG1hc2s9InVybCgjYXJnb2NkLW9yaWdpbmFsLWwpIiB4bGluazpocmVmPSIjYXJnb2NkLW9yaWdpbmFsLWsiLz48L3N2Zz4=;" vertex="1" parent="1">
          <mxGeometry x="840" y="310" width="46.56" height="60" as="geometry" />
        </mxCell>
        <mxCell id="hrem9brc0uJo8NUHdfwz-10" style="edgeStyle=orthogonalEdgeStyle;rounded=0;orthogonalLoop=1;jettySize=auto;html=1;" edge="1" parent="1" source="hrem9brc0uJo8NUHdfwz-8" target="hrem9brc0uJo8NUHdfwz-2">
          <mxGeometry relative="1" as="geometry" />
        </mxCell>
        <mxCell id="hrem9brc0uJo8NUHdfwz-8" value="" style="shape=image;verticalLabelPosition=bottom;labelBackgroundColor=default;verticalAlign=top;aspect=fixed;imageAspect=0;editableCssRules=.*;image=data:image/svg+xml,PHN2ZyB4bWxucz0iaHR0cDovL3d3dy53My5vcmcvMjAwMC9zdmciIHZpZXdCb3g9IjAgMCAxMjggMTI4IiB3aWR0aD0iMTI4IiBoZWlnaHQ9IjEyOCI+PHBhdGggZD0iTTI2LjY2NiAwQzExLjk3IDAgMCAxMS45NyAwIDI2LjY2NmMwIDEyLjg3IDkuMTgxIDIzLjY1MSAyMS4zMzQgMjYuMTN2MzcuODdjMCAxMS43NyA5LjY4IDIxLjMzNCAyMS4zMzIgMjEuMzM0aC4xOTVjMS4zMDIgOS4wMjMgOS4xIDE2IDE4LjQ3MyAxNkM3MS42MTIgMTI4IDgwIDExOS42MTIgODAgMTA5LjMzNHMtOC4zODgtMTguNjY4LTE4LjY2Ni0xOC42NjhjLTkuMzcyIDAtMTcuMTcgNi45NzctMTguNDczIDE2aC0uMTk1Yy04LjczNyAwLTE2LTcuMTUyLTE2LTE2VjYzLjc3OWExOC41MTQgMTguNTE0IDAgMCAwIDEzLjI0IDUuNTU1aDIuOTU1YzEuMzAzIDkuMDIzIDkuMSAxNiAxOC40NzMgMTYgOS4zNzIgMCAxNy4xNjktNi45NzcgMTguNDctMTZoMTEuMDU3YzEuMzAzIDkuMDIzIDkuMSAxNiAxOC40NzMgMTYgMTAuMjc4IDAgMTguNjY2LTguMzkgMTguNjY2LTE4LjY2OEMxMjggNTYuMzg4IDExOS42MTIgNDggMTA5LjMzNCA0OGMtOS4zNzMgMC0xNy4xNzEgNi45NzctMTguNDczIDE2SDc5LjgwNWMtMS4zMDEtOS4wMjMtOS4wOTgtMTYtMTguNDcxLTE2cy0xNy4xNzEgNi45NzctMTguNDczIDE2aC0yLjk1NWMtNi40MzMgMC0xMS43OTMtNC41ODktMTIuOTg4LTEwLjY3MiAxNC41OC0uMTM2IDI2LjQxNi0xMi4wNSAyNi40MTYtMjYuNjYyQzUzLjMzNCAxMS45NyA0MS4zNjIgMCAyNi42NjYgMHptMCA1LjMzNEEyMS4yOTIgMjEuMjkyIDAgMCAxIDQ4IDI2LjY2NiAyMS4yOTQgMjEuMjk0IDAgMCAxIDI2LjY2NiA0OCAyMS4yOTIgMjEuMjkyIDAgMCAxIDUuMzM0IDI2LjY2NiAyMS4yOSAyMS4yOSAwIDAgMSAyNi42NjYgNS4zMzR6bS01LjIxNSA3LjU0MUMxOC42NyAxMi44ODkgMTYgMTUuMTIzIDE2IDE4LjE2NnYxNy4wNDNjMCA0LjA0MyA0LjcwOSA2LjY2MyA4LjE0NSA0LjUzM2wxMy42MzQtOC40NTVjMy4yNTctMi4wMiAzLjI3NC03LjAwMi4wMzItOS4wNDVsLTEzLjYzNS04LjU5YTUuMDI0IDUuMDI0IDAgMCAwLTIuNzI1LS43Nzd6bS0uMTE3IDUuMjkxIDEzLjYzNSA4LjU4OC0xMy42MzUgOC40NTVWMTguMTY2em00MCAzNS4xNjhhMTMuMjkgMTMuMjkgMCAwIDEgMTMuMzMyIDEzLjMzMkExMy4yOTMgMTMuMjkzIDAgMCAxIDYxLjMzNCA4MCAxMy4yOTQgMTMuMjk0IDAgMCAxIDQ4IDY2LjY2NmExMy4yOTMgMTMuMjkzIDAgMCAxIDEzLjMzNC0xMy4zMzJ6bTQ4IDBhMTMuMjkgMTMuMjkgMCAwIDEgMTMuMzMyIDEzLjMzMkExMy4yOTMgMTMuMjkzIDAgMCAxIDEwOS4zMzQgODAgMTMuMjk0IDEzLjI5NCAwIDAgMSA5NiA2Ni42NjZhMTMuMjkzIDEzLjI5MyAwIDAgMSAxMy4zMzQtMTMuMzMyem0tNDIuNTY4IDYuOTUxYTIuNjY3IDIuNjY3IDAgMCAwLTEuODg3Ljc4bC02LjMgNi4yOTQtMi4wOTMtMi4wODRhMi42NjcgMi42NjcgMCAwIDAtMy43NzEuMDA2IDIuNjY3IDIuNjY3IDAgMCAwIC4wMDggMy43NzJsMy45NzQgMy45NmEyLjY2NyAyLjY2NyAwIDAgMCAzLjc2Ni0uMDAxbDguMTg1LTguMTc0YTIuNjY3IDIuNjY3IDAgMCAwIC4wMDItMy43NzIgMi42NjcgMi42NjcgMCAwIDAtMS44ODQtLjc4em00OCAwYTIuNjY3IDIuNjY3IDAgMCAwLTEuODg3Ljc4bC02LjMgNi4yOTQtMi4wOTMtMi4wODRhMi42NjcgMi42NjcgMCAwIDAtMy43NzEuMDA2IDIuNjY3IDIuNjY3IDAgMCAwIC4wMDggMy43NzJsMy45NzQgMy45NmEyLjY2NyAyLjY2NyAwIDAgMCAzLjc2Ni0uMDAxbDguMTg1LTguMTc0YTIuNjY3IDIuNjY3IDAgMCAwIC4wMDItMy43NzIgMi42NjcgMi42NjcgMCAwIDAtMS44ODQtLjc4ek02MS4zMzQgOTZhMTMuMjkzIDEzLjI5MyAwIDAgMSAxMy4zMzIgMTMuMzM0IDEzLjI5IDEzLjI5IDAgMCAxLTEzLjMzMiAxMy4zMzJBMTMuMjkzIDEzLjI5MyAwIDAgMSA0OCAxMDkuMzM0IDEzLjI5NCAxMy4yOTQgMCAwIDEgNjEuMzM0IDk2ek01NiAxMDUuMzM0Yy0yLjE5MyAwLTQgMS44MDctNCA0IDAgMi4xOTUgMS44MDggNCA0IDRzNC0xLjgwNSA0LTRjMC0yLjE5My0xLjgwNy00LTQtNHptMTAuNjY2IDBjLTIuMTkzIDAtNCAxLjgwNy00IDQgMCAyLjE5NSAxLjgwOCA0IDQgNHM0LTEuODA1IDQtNGMwLTIuMTkzLTEuODA3LTQtNC00ek01NiAxMDhjLjc1IDAgMS4zMzQuNTg1IDEuMzM0IDEuMzM0IDAgLjc1My0uNTgzIDEuMzMyLTEuMzM0IDEuMzMyLS43NSAwLTEuMzM0LS41OC0xLjMzNC0xLjMzMiAwLS43NS41ODUtMS4zMzQgMS4zMzQtMS4zMzR6bTEwLjY2NiAwYy43NSAwIDEuMzM0LjU4NSAxLjMzNCAxLjMzNCAwIC43NTMtLjU4MyAxLjMzMi0xLjMzNCAxLjMzMi0uNzUgMC0xLjMzMi0uNTgtMS4zMzItMS4zMzIgMC0uNzUuNTgzLTEuMzM0IDEuMzMyLTEuMzM0eiIgZmlsbD0iIzIwODhmZiIvPjxwYXRoIGQ9Ik0xMDkuMzM0IDkwLjY2NmMtOS4zODMgMC0xNy4xODggNi45OTMtMTguNDc3IDE2LjAzMWEyLjY2NyAyLjY2NyAwIDAgMC0uMjY1LS4wMTFsLTIuNy4wOWEyLjY2NyAyLjY2NyAwIDAgMC0yLjU3OCAyLjc1MSAyLjY2NyAyLjY2NyAwIDAgMCAyLjc1MiAyLjU3OGwyLjctLjA4N2EyLjY2NyAyLjY2NyAwIDAgMCAuMDk3LS4wMDZDOTIuMTcgMTIxLjAyOSA5OS45NjUgMTI4IDEwOS4zMzQgMTI4YzEwLjI3OCAwIDE4LjY2Ni04LjM4OCAxOC42NjYtMTguNjY2cy04LjM4OC0xOC42NjgtMTguNjY2LTE4LjY2OHptMCA1LjMzNGExMy4yOTMgMTMuMjkzIDAgMCAxIDEzLjMzMiAxMy4zMzQgMTMuMjkgMTMuMjkgMCAwIDEtMTMuMzMyIDEzLjMzMkExMy4yOTMgMTMuMjkzIDAgMCAxIDk2IDEwOS4zMzQgMTMuMjk0IDEzLjI5NCAwIDAgMSAxMDkuMzM0IDk2eiIgZmlsbD0iIzc5YjhmZiIvPjwvc3ZnPg==;" vertex="1" parent="1">
          <mxGeometry x="510" y="315" width="50" height="50" as="geometry" />
        </mxCell>
        <mxCell id="hrem9brc0uJo8NUHdfwz-11" value="Push new Container" style="edgeLabel;html=1;align=center;verticalAlign=bottom;resizable=0;points=[];labelPosition=center;verticalLabelPosition=top;" vertex="1" connectable="0" parent="1">
          <mxGeometry x="619.6153846153845" y="340" as="geometry" />
        </mxCell>
        <mxCell id="hrem9brc0uJo8NUHdfwz-15" value="Push new changes" style="edgeStyle=orthogonalEdgeStyle;rounded=0;orthogonalLoop=1;jettySize=auto;html=1;entryX=0;entryY=0.5;entryDx=0;entryDy=0;" edge="1" parent="1" source="hrem9brc0uJo8NUHdfwz-14" target="hrem9brc0uJo8NUHdfwz-24">
          <mxGeometry relative="1" as="geometry">
            <mxPoint x="514.5" y="200" as="targetPoint" />
          </mxGeometry>
        </mxCell>
        <mxCell id="hrem9brc0uJo8NUHdfwz-14" value="" style="sketch=0;outlineConnect=0;fontColor=#232F3E;gradientColor=none;fillColor=#232F3D;strokeColor=none;dashed=0;verticalLabelPosition=bottom;verticalAlign=top;align=center;html=1;fontSize=12;fontStyle=0;aspect=fixed;pointerEvents=1;shape=mxgraph.aws4.user;" vertex="1" parent="1">
          <mxGeometry x="360" y="180" width="40" height="40" as="geometry" />
        </mxCell>
        <mxCell id="hrem9brc0uJo8NUHdfwz-22" style="edgeStyle=orthogonalEdgeStyle;rounded=0;orthogonalLoop=1;jettySize=auto;html=1;" edge="1" parent="1" source="hrem9brc0uJo8NUHdfwz-18" target="hrem9brc0uJo8NUHdfwz-21">
          <mxGeometry relative="1" as="geometry" />
        </mxCell>
        <mxCell id="hrem9brc0uJo8NUHdfwz-23" value="Updates" style="edgeLabel;html=1;align=center;verticalAlign=middle;resizable=0;points=[];" vertex="1" connectable="0" parent="hrem9brc0uJo8NUHdfwz-22">
          <mxGeometry x="0.2215" relative="1" as="geometry">
            <mxPoint x="-23" as="offset" />
          </mxGeometry>
        </mxCell>
        <mxCell id="hrem9brc0uJo8NUHdfwz-18" value="ArgoCD&#xa;Server" style="shape=image;verticalLabelPosition=bottom;labelBackgroundColor=default;verticalAlign=top;aspect=fixed;imageAspect=0;editableCssRules=.*;image=data:image/svg+xml,PHN2ZyB4bWxuczp4bGluaz0iaHR0cDovL3d3dy53My5vcmcvMTk5OS94bGluayIgeG1sbnM9Imh0dHA6Ly93d3cudzMub3JnLzIwMDAvc3ZnIiB2aWV3Qm94PSIxNS4xMjkwODI2Nzk3NDg1MzUgMS42MDIwMDExOTAxODU1NDY5IDk2LjkyNTc5NjUwODc4OTA2IDEyNC41NTAwMDMwNTE3NTc4MSIgd2lkdGg9Ijk2LjkyNTc5NjUwODc4OTA2IiBoZWlnaHQ9IjEyNC41NTAwMDMwNTE3NTc4MSI+PGRlZnM+PGNsaXBQYXRoIGlkPSJhcmdvY2Qtb3JpZ2luYWwtZSI+PHBhdGggZD0iTTQyIDQxaDQ0djUxSDQyem0wIDAiLz48L2NsaXBQYXRoPjxjbGlwUGF0aCBpZD0iYXJnb2NkLW9yaWdpbmFsLWQiPjxwYXRoIGQ9Ik0wIDBoMTI4djEyOEgweiIvPjwvY2xpcFBhdGg+PGNsaXBQYXRoIGlkPSJhcmdvY2Qtb3JpZ2luYWwtYyI+PHBhdGggZD0iTTAgMGgxMjh2MTI4SDB6Ii8+PC9jbGlwUGF0aD48Y2xpcFBhdGggaWQ9ImFyZ29jZC1vcmlnaW5hbC1mIj48cGF0aCBkPSJNODUuNjk1IDQxLjEzM2wtMi41NSA1OC4yMzhINDQuODg3bC0yLjEyNS01OC4yMzgiLz48L2NsaXBQYXRoPjxjbGlwUGF0aCBpZD0iYXJnb2NkLW9yaWdpbmFsLWIiPjxwYXRoIGQ9Ik0wIDBoMTI4djEyOEgweiIvPjwvY2xpcFBhdGg+PG1hc2sgaWQ9ImFyZ29jZC1vcmlnaW5hbC1sIj48ZyBmaWx0ZXI9InVybCgjYXJnb2NkLW9yaWdpbmFsLWEpIj48cGF0aCBmaWxsLW9wYWNpdHk9Ii4yNTEiIGQ9Ik0wIDBoMTI4djEyOEgweiIvPjwvZz48L21hc2s+PG1hc2sgaWQ9ImFyZ29jZC1vcmlnaW5hbC1oIj48ZyBmaWx0ZXI9InVybCgjYXJnb2NkLW9yaWdpbmFsLWEpIj48cGF0aCBmaWxsLW9wYWNpdHk9Ii4yMiIgZD0iTTAgMGgxMjh2MTI4SDB6Ii8+PC9nPjwvbWFzaz48bWFzayBpZD0iYXJnb2NkLW9yaWdpbmFsLWoiPjxnIGZpbHRlcj0idXJsKCNhcmdvY2Qtb3JpZ2luYWwtYSkiPjxwYXRoIGZpbGwtb3BhY2l0eT0iLjUwMiIgZD0iTTAgMGgxMjh2MTI4SDB6Ii8+PC9nPjwvbWFzaz48ZyBjbGlwLXBhdGg9InVybCgjYXJnb2NkLW9yaWdpbmFsLWIpIiBpZD0iYXJnb2NkLW9yaWdpbmFsLWkiPjxwYXRoIGZpbGw9IiNmYmRmYzMiIGQ9Ik01OC40ODggMzAuNTA4YTIuOTc0IDIuOTc0IDAgMTEtNS45NDgtLjAwMyAyLjk3NCAyLjk3NCAwIDAxNS45NDguMDAzem0wIDAiLz48L2c+PGcgY2xpcC1wYXRoPSJ1cmwoI2FyZ29jZC1vcmlnaW5hbC1jKSIgaWQ9ImFyZ29jZC1vcmlnaW5hbC1nIj48cGF0aCBmaWxsPSIjZTM0ZTNiIiBkPSJNODQuNDIyIDY1LjM2M3MyLjU1LTIyLjUzMS0uODUyLTMxLjAzMUM3Ny4xOTUgMTkuNDUzIDYyLjMxNiAyMC43MyA2Mi4zMTYgMjAuNzNzOC41IDMuMzk5IDguOTI2IDE2LjE1M2MuNDI2IDguOTI2IDAgMjIuMTA1IDAgMjIuMTA1em0wIDAiLz48L2c+PGcgY2xpcC1wYXRoPSJ1cmwoI2FyZ29jZC1vcmlnaW5hbC1kKSIgaWQ9ImFyZ29jZC1vcmlnaW5hbC1rIj48cGF0aCBmaWxsPSIjZTk2NTRiIiBkPSJNODMuMTQ1IDkwLjg2N1Y4Ny40N2MtNS45NSAzLjM5OC0xMi4zMjkgNi44LTE5Ljk3NyA2LjgtOC41MDQgMC0xNC4wMzEtMy44MjQtMTkuNTU1LTYuOGwuNDIyIDMuMzk4czYuMzggNi44MDUgMTkuNTU1IDYuODA1YzEyLjMyOC0uNDI2IDE5LjU1NS02LjgwNSAxOS41NTUtNi44MDV6bTAgMCIvPjwvZz48ZmlsdGVyIGhlaWdodD0iMTAwJSIgd2lkdGg9IjEwMCUiIHk9IjAlIiB4PSIwJSIgZmlsdGVyVW5pdHM9Im9iamVjdEJvdW5kaW5nQm94IiBpZD0iYXJnb2NkLW9yaWdpbmFsLWEiPjxmZUNvbG9yTWF0cml4IHZhbHVlcz0iMCAwIDAgMCAxIDAgMCAwIDAgMSAwIDAgMCAwIDEgMCAwIDAgMSAwIiBpbj0iU291cmNlR3JhcGhpYyIvPjwvZmlsdGVyPjwvZGVmcz48cGF0aCBmaWxsPSIjZTk2NTRiIiBkPSJNNDQuMDM1IDg5LjU5NHMtLjg0NyAyLjU1LTIuMTI1IDMuODI0YTMuODQ0IDMuODQ0IDAgMDEtMi45NzIgMS4yNzcgNDkuOTQ2IDQ5Ljk0NiAwIDAxLTYuMzggMS4yNzRzMi45NzcuNDI2IDYuMzguODUxYzEuMjczIDAgMS4yNzMgMCAyLjEyNC40MjYgMi4xMjYgMCAyLjk3My0xLjI3NyAyLjk3My0xLjI3N3ptMzkuMTEgMHMuODUxIDIuNTUgMi4xMjUgMy44MjRhMy44NTggMy44NTggMCAwMDIuOTc2IDEuMjc3IDQ5LjggNDkuOCAwIDAwNi4zNzUgMS4yNzRzLTIuOTczLjQyNi02LjguODUxYy0xLjI3NCAwLTEuMjc0IDAtMi4xMjYuNDI2LTIuNTUgMC0yLjk3Ni0xLjI3Ny0yLjk3Ni0xLjI3N3ptMCAwIi8+PHBhdGggZmlsbD0iI2I2Y2ZlYSIgZD0iTTEwOS45MjYgNDcuNTA4YzAgMjUuMzU1LTIwLjU1NSA0NS45MS00NS45MSA0NS45MS0yNS4zNTYgMC00NS45MS0yMC41NTUtNDUuOTEtNDUuOTEgMC0yNS4zNTIgMjAuNTU0LTQ1LjkwNiA0NS45MS00NS45MDYgMjUuMzU1IDAgNDUuOTEgMjAuNTU0IDQ1LjkxIDQ1LjkwNnptMCAwIi8+PHBhdGggZmlsbD0iI2U2ZjVmOCIgZD0iTTEwOC4yMjcgNDcuNTA4YzAgMjQuNDE4LTE5Ljc5MyA0NC4yMS00NC4yMTEgNDQuMjEtMjQuNDE0IDAtNDQuMjA3LTE5Ljc5Mi00NC4yMDctNDQuMjFDMTkuODA5IDIzLjA5NCAzOS42MDIgMy4zIDY0LjAxNiAzLjNjMjQuNDE4IDAgNDQuMjEgMTkuNzkzIDQ0LjIxIDQ0LjIwN3ptMCAwIi8+PHBhdGggZmlsbD0iI2QwZThmMCIgZD0iTTEwMC4xNDggNDguMzZjMCAxOS45NTYtMTYuMTc1IDM2LjEzMi0zNi4xMzIgMzYuMTMyLTE5Ljk1NCAwLTM2LjEzMy0xNi4xNzYtMzYuMTMzLTM2LjEzMyAwLTE5Ljk1MyAxNi4xOC0zNi4xMzIgMzYuMTMzLTM2LjEzMiAxOS45NTcgMCAzNi4xMzIgMTYuMTggMzYuMTMyIDM2LjEzMnptMCAwIi8+PHBhdGggZmlsbD0iI2VlNzk0YiIgZD0iTTQyLjc2MiA2NS4zNjNzMi45NzYgNDguMDM1IDIuOTc2IDQ4Ljg4N2MwIC40MjIuNDI2IDEuMjczLTEuNzAzIDIuMTI1LTIuMTI1Ljg0OC04LjkyNiAyLjU1LTguOTI2IDIuNTVoMTAuMjAzYzQuNjc2IDAgNC42NzYtMy44MjcgNC42NzYtNC42NzUgMC0uODUyIDEuMjc0LTE5LjEyOSAxLjI3NC0xOS4xMjlzLjQyNSAyMS42OC40MjUgMjIuNTI3YzAgLjg1Mi0uNDI1IDIuMTI1LTMuMzk4IDIuOTc3LTIuMTI1LjQyNi04LjUwNCAxLjctOC41MDQgMS43aDkuNzc4YzUuOTUzIDAgNS45NTMtMy44MjUgNS45NTMtMy44MjVsMS4yNzMtMTkuMTI5cy40MjYgMTkuMTI5LjQyNiAyMS4yNTRjMCAxLjctMS4yNzQgMi45NzctNS45NTMgMy44MjQtMi45NzMuODUyLTYuODAxIDEuNzAzLTYuODAxIDEuNzAzaDExLjA1NWM1LjUyMy0uNDI1IDYuMzc1LTQuMjU0IDYuMzc1LTQuMjU0bDkuMzUxLTQ3LjYwOXptMCAwIi8+PHBhdGggZmlsbD0iI2VlNzk0YiIgZD0iTTg1LjI3IDY1LjM2M3MtMi45NzMgNDguMDM1LTIuOTczIDQ4Ljg4N2MwIC40MjItLjQyNiAxLjI3MyAxLjcgMi4xMjUgMi4xMjQuODQ4IDguOTI1IDIuNTUgOC45MjUgMi41NUg4Mi43MTljLTQuNjc2IDAtNC42NzYtMy44MjctNC42NzYtNC42NzUgMC0uODUyLTEuMjczLTE5LjEyOS0xLjI3My0xOS4xMjlzLS40MjYgMjEuNjgtLjQyNiAyMi41MjdjMCAuODUyLjQyNiAyLjEyNSAzLjQwMiAyLjk3N2w4LjUgMS43SDc4LjQ3Yy01Ljk1IDAtNS45NS0zLjgyNS01Ljk1LTMuODI1bC0xLjI3Ny0xOS4xMjlzLS40MjYgMTkuMTI5LS40MjYgMjEuMjU0YzAgMS43IDEuMjc4IDIuOTc3IDUuOTU0IDMuODI0IDIuOTc2Ljg1MiA2LjggMS43MDMgNi44IDEuNzAzSDcyLjUyYy01LjUyOC0uNDI1LTYuMzgtNC4yNTQtNi4zOC00LjI1NEw1Ni43OSA3NC4yOXptLjQyNS0yMy4zNzljMCAxMS45MDMtOS43NzcgMjEuMjU0LTIxLjI1NCAyMS4yNTQtMTEuNDc2IDAtMjEuMjU0LTkuNzc3LTIxLjI1NC0yMS4yNTQgMC0xMS40NzYgOS43NzgtMjEuMjU0IDIxLjI1NC0yMS4yNTQgMTEuNDc3IDAgMjEuMjU0IDkuMzUyIDIxLjI1NCAyMS4yNTR6bTAgMCIvPjxnIGNsaXAtcGF0aD0idXJsKCNhcmdvY2Qtb3JpZ2luYWwtZSkiPjxnIGNsaXAtcGF0aD0idXJsKCNhcmdvY2Qtb3JpZ2luYWwtZikiPjxwYXRoIGZpbGw9IiNlZTc5NGIiIGQ9Ik0xMDIuMjczIDUzLjQ2YzAgMjAuODk1LTE2LjkzNyAzNy44MzMtMzcuODMyIDM3LjgzMy0yMC44OTQgMC0zNy44MzItMTYuOTM4LTM3LjgzMi0zNy44MzIgMC0yMC44OTUgMTYuOTM4LTM3LjgzMiAzNy44MzItMzcuODMyIDIwLjg5NSAwIDM3LjgzMiAxNi45MzcgMzcuODMyIDM3LjgzMnptMCAwIi8+PC9nPjwvZz48dXNlIG1hc2s9InVybCgjYXJnb2NkLW9yaWdpbmFsLWgpIiB4bGluazpocmVmPSIjYXJnb2NkLW9yaWdpbmFsLWciLz48dXNlIG1hc2s9InVybCgjYXJnb2NkLW9yaWdpbmFsLWopIiB4bGluazpocmVmPSIjYXJnb2NkLW9yaWdpbmFsLWkiLz48cGF0aCBmaWxsPSIjMDEwMTAxIiBkPSJNNzEuNjY4IDczLjg2M2MwIDcuMjI3LTMuNDAyIDExLjkwNy03LjY1MiAxMS45MDdzLTcuNjUzLTUuNTI4LTcuNjUzLTEyLjc1NGMwIDAgMy40MDMgNi44IDguMDc4IDYuOCA0LjY3NiAwIDcuMjI3LTUuOTUzIDcuMjI3LTUuOTUzem0wIDAiLz48cGF0aCBmaWxsPSIjZmZmIiBkPSJNNzEuNjY4IDczLjg2M2MwIDQuNjgtMy40MDIgNy4yMjctNy42NTIgNy4yMjdzLTcuMjI3LTMuMzk5LTcuMjI3LTcuNjQ5YzAgMCAzLjQwMiA0LjI1IDguMDc4IDQuMjUgNC42NzYgMCA2LjgwMS0zLjgyOCA2LjgwMS0zLjgyOHptMCAwIi8+PHBhdGggZmlsbD0iI2U5NjU0YiIgZD0iTTkyLjA3IDUzLjg4N2MwIDcuMjc3LTUuODk4IDEzLjE3NS0xMy4xNzUgMTMuMTc1LTcuMjc4IDAtMTMuMTgtNS44OTgtMTMuMTgtMTMuMTc1IDAtNy4yNzggNS45MDItMTMuMTggMTMuMTgtMTMuMTggNy4yNzcgMCAxMy4xNzUgNS45MDIgMTMuMTc1IDEzLjE4em0tMjkuNzU0IDBjMCA3LjI3Ny01LjkwMiAxMy4xNzUtMTMuMTggMTMuMTc1LTcuMjc3IDAtMTMuMTc1LTUuODk4LTEzLjE3NS0xMy4xNzUgMC03LjI3OCA1Ljg5OC0xMy4xOCAxMy4xNzYtMTMuMTggNy4yNzcgMCAxMy4xOCA1LjkwMiAxMy4xOCAxMy4xOHptMCAwIi8+PHBhdGggZmlsbD0iI2ZmZiIgZD0iTTg5LjA5OCA1My44ODdjMCA1LjYzMy00LjU3IDEwLjIwMy0xMC4yMDMgMTAuMjAzLTUuNjMzIDAtMTAuMjA0LTQuNTctMTAuMjA0LTEwLjIwMyAwLTUuNjM3IDQuNTctMTAuMjAzIDEwLjIwNC0xMC4yMDMgNS42MzIgMCAxMC4yMDMgNC41NjYgMTAuMjAzIDEwLjIwM3ptLTMwLjYxIDBjMCA1LjYzMy00LjU2NiAxMC4yMDMtMTAuMTk5IDEwLjIwMy01LjYzNyAwLTEwLjIwMy00LjU3LTEwLjIwMy0xMC4yMDNhMTAuMjAxIDEwLjIwMSAwIDAxMTAuMjAzLTEwLjIwM2M1LjYzMyAwIDEwLjIgNC41NjYgMTAuMiAxMC4yMDN6bTAgMCIvPjxwYXRoIGZpbGw9IiMwMTAxMDEiIGQ9Ik01MS4yNjIgNTIuNjFhMi45NzUgMi45NzUgMCAxMS01Ljk1LjAwMyAyLjk3NSAyLjk3NSAwIDAxNS45NS0uMDA0em0zMC42MDkgMGEyLjk3NiAyLjk3NiAwIDExLTUuOTUxLjAwMSAyLjk3NiAyLjk3NiAwIDAxNS45NTEtLjAwMnptMCAwIi8+PHBhdGggZmlsbD0iI2I2Y2ZlYSIgZD0iTTE3LjI1OCA1OC45ODhhMi4wMDUgMi4wMDUgMCAwMS0yLjEyNS0yLjEyNVYzOS44NmEyLjAwOCAyLjAwOCAwIDAxLjU4Mi0xLjU0MyAyLjAwOCAyLjAwOCAwIDAxMS41NDMtLjU4MiAyLjAwNSAyLjAwNSAwIDAxMi4xMjUgMi4xMjV2MTcuMDA0Yy4wMzUuNTctLjE4IDEuMTMzLS41ODYgMS41NGEyLjAwOCAyLjAwOCAwIDAxLTEuNTQuNTg1em05Mi42NjggMGEyLjAwMyAyLjAwMyAwIDAxLTEuNTQtLjU4NiAyLjAwOCAyLjAwOCAwIDAxLS41ODUtMS41MzlWMzkuODZhMi4wMTEgMi4wMTEgMCAwMS41ODYtMS41NDMgMiAyIDAgMDExLjUzOS0uNTgyIDIgMiAwIDAxMS41MzkuNTgyYy40MS40MDcuNjIuOTcuNTg2IDEuNTQzdjE3LjAwNGExLjk5NCAxLjk5NCAwIDAxLS41ODYgMS41NCAyLjAwMyAyLjAwMyAwIDAxLTEuNTQuNTg1em0wIDAiLz48cGF0aCBmaWxsPSIjZmZmIiBkPSJNNTEuNjg4IDEzLjUwNGEyLjEyNSAyLjEyNSAwIDExLTQuMjUgMCAyLjEyNSAyLjEyNSAwIDAxNC4yNSAwek0zNC4yNjIgNzAuODlhMS41NTkgMS41NTkgMCAwMS0xLjI3OC0uNDI1Yy01LjEwMS02LjM3NS03LjY1Mi0xNC40NTMtNy42NTItMjIuNTMxYTM3LjkzMyAzNy45MzMgMCAwMTUuMTAyLTE5LjEzIDQxLjY0MSA0MS42NDEgMCAwMTEzLjYwMS0xMy42IDEuODczIDEuODczIDAgMDEyLjEzLjQyNSAxLjg3NCAxLjg3NCAwIDAxLS40MjcgMi4xMjUgMzQuMzA1IDM0LjMwNSAwIDAwLTE3LjQzIDI5Ljc1NCAzMy40ODcgMzMuNDg3IDAgMDA3LjIyNyAyMC44MzJjLjQyNi40MjYuNDI2IDEuNy0uNDI2IDIuMTI1LS40MjUuNDI2LS40MjUuNDI2LS44NDcuNDI2em0wIDAiLz48dXNlIG1hc2s9InVybCgjYXJnb2NkLW9yaWdpbmFsLWwpIiB4bGluazpocmVmPSIjYXJnb2NkLW9yaWdpbmFsLWsiLz48L3N2Zz4=;" vertex="1" parent="1">
          <mxGeometry x="511.72" y="20" width="46.56" height="60" as="geometry" />
        </mxCell>
        <mxCell id="hrem9brc0uJo8NUHdfwz-21" value="Azure&amp;nbsp;&lt;div&gt;Kubernetes&amp;nbsp;&lt;/div&gt;&lt;div&gt;Service&lt;/div&gt;" style="editableCssRules=.*;html=1;shape=image;verticalLabelPosition=bottom;labelBackgroundColor=none;verticalAlign=top;aspect=fixed;imageAspect=0;image=data:image/svg+xml,PHN2ZyB4bWxucz0iaHR0cDovL3d3dy53My5vcmcvMjAwMC9zdmciIHhtbG5zOnY9Imh0dHBzOi8vdmVjdGEuaW8vbmFubyIgd2lkdGg9IjcwMi44NDYzMTM0NzY1NjI1IiBoZWlnaHQ9IjY4MS45NjcxMDIwNTA3ODEyIiB2aWV3Qm94PSIxMC4wMDEwMjYxNTM1NjQ0NTMgMTAuMDAwOTMzNjQ3MTU1NzYyIDcwMi44NDYzMTM0NzY1NjI1IDY4MS45NjcxMDIwNTA3ODEyIj4mI3hhOwk8c3R5bGUgdHlwZT0idGV4dC9jc3MiPiYjeGE7CS5zdDB7ZmlsbDojMzI2Y2U1O30mI3hhOwkuc3Qxe2ZpbGw6I2ZmZjt9JiN4YTsJPC9zdHlsZT4mI3hhOwk8cGF0aCBjbGFzcz0ic3QwIiBkPSJNMzU4Ljk4NyAxMC4wNmMtNi4yMTMuMzEzLTEyLjMwMSAxLjg1NC0xNy45MDYgNC41MzFMOTYuNzM3IDEzMS4zNDJjLTEyLjgxMSA2LjExOC0yMi4xMTYgMTcuNjg5LTI1LjI4MSAzMS40MzhsLTYwLjI4MSAyNjIuMjVjLTIuODEyIDEyLjIwNy0uNTI0IDI1LjAyNCA2LjM0NCAzNS41MzFhNDYuMzUgNDYuMzUgMCAwIDAgMi42NTYgMy42ODhsMTY5LjEyNSAyMTAuMjgxYzguODY4IDExLjAyMiAyMi4zMTMgMTcuNDQgMzYuNTMxIDE3LjQzOGwyNzEuMjE5LS4wNjJjMTQuMjEyLjAxIDI3LjY1Ny02LjM5NiAzNi41MzEtMTcuNDA2bDE2OS4wNjMtMjEwLjMxM2M4Ljg3My0xMS4wMjggMTIuMTk3LTI1LjQ2NCA5LjAzMS0zOS4yMTlsLTYwLjM3NS0yNjIuMjVjLTMuMTY1LTEzLjc0OC0xMi40Ny0yNS4zMTktMjUuMjgxLTMxLjQzN0wzODEuNjQzIDE0LjU5MmMtNy4wNS0zLjM2OC0xNC44NDEtNC45MjYtMjIuNjU2LTQuNTMxeiIvPiYjeGE7CTxwYXRoIGNsYXNzPSJzdDEgc3QyIiBkPSJNMzYxLjQwOCA5OS4zMDhjLTguMDc3LjAwMS0xNC42MjYgNy4yNzYtMTQuNjI1IDE2LjI1IDAgLjEzOC4wMjguMjY5LjAzMS40MDYtLjAxMiAxLjIxOS0uMDcxIDIuNjg4LS4wMzEgMy43NS4xOTMgNS4xNzYgMS4zMjEgOS4xMzcgMiAxMy45MDYgMS4yMyAxMC4yMDcgMi4yNjEgMTguNjY3IDEuNjI1IDI2LjUzMS0uNjE5IDIuOTY1LTIuODAzIDUuNjc3LTQuNzUgNy41NjNsLS4zNDQgNi4xODhjLTguNzc3LjcyNy0xNy42MTIgMi4wNTktMjYuNDM3IDQuMDYzLTM3Ljk3NSA4LjYyMi03MC42NyAyOC4xODMtOTUuNTYyIDU0LjU5NC0xLjYxNS0xLjEwMi00LjQ0MS0zLjEyOS01LjI4MS0zLjc1LTIuNjExLjM1My01LjI1IDEuMTU4LTguNjg3LS44NDQtNi41NDUtNC40MDYtMTIuNTA2LTEwLjQ4Ny0xOS43MTktMTcuODEyLTMuMzA1LTMuNTA0LTUuNjk4LTYuODQxLTkuNjI1LTEwLjIxOS0uODkyLS43NjctMi4yNTMtMS44MDUtMy4yNS0yLjU5NC0zLjA3LTIuNDQ4LTYuNjkxLTMuNzI0LTEwLjE4Ny0zLjg0NC00LjQ5Ni0uMTU0LTguODI0IDEuNjA0LTExLjY1NiA1LjE1Ni01LjAzNSA2LjMxNS0zLjQyMyAxNS45NjggMy41OTQgMjEuNTYzLjA3MS4wNTcuMTQ3LjEwMS4yMTkuMTU2Ljk2NC43ODIgMi4xNDUgMS43ODMgMy4wMzEgMi40MzggNC4xNjcgMy4wNzcgNy45NzMgNC42NTEgMTIuMTI1IDcuMDk0IDguNzQ3IDUuNDAyIDE1Ljk5OCA5Ljg4MSAyMS43NSAxNS4yODEgMi4yNDYgMi4zOTQgMi42MzkgNi42MTMgMi45MzggOC40MzhsNC42ODggNC4xODhjLTI1LjA5MyAzNy43NjQtMzYuNzA3IDg0LjQwOS0yOS44NDQgMTMxLjkzOGwtNi4xMjUgMS43ODFjLTEuNjE0IDIuMDg1LTMuODk1IDUuMzY1LTYuMjgxIDYuMzQ0LTcuNTI1IDIuMzctMTUuOTk0IDMuMjQxLTI2LjIxOSA0LjMxMy00LjguMzk5LTguOTQyLjE2MS0xNC4wMzEgMS4xMjUtMS4xMi4yMTItMi42ODEuNjE5LTMuOTA2LjkwNi0uMDQzLjAwOS0uMDgyLjAyMi0uMTI1LjAzMS0uMDY3LjAxNS0uMTU1LjA0OC0uMjE5LjA2My04LjYyIDIuMDgzLTE0LjE1OCAxMC4wMDYtMTIuMzc1IDE3LjgxM3MxMC4yMDMgMTIuNTU3IDE4Ljg3NSAxMC42ODhjLjA2My0uMDE0LjE1NC0uMDE3LjIxOS0uMDMxLjA5OC0uMDIyLjE4NC0uMDcuMjgxLS4wOTQgMS4yMDktLjI2NSAyLjcyNC0uNTYxIDMuNzgxLS44NDQgNS4wMDMtMS4zNCA4LjYyNy0zLjMwOCAxMy4xMjUtNS4wMzEgOS42NzctMy40NzEgMTcuNjkyLTYuMzcgMjUuNS03LjUgMy4yNjEtLjI1NSA2LjY5NyAyLjAxMiA4LjQwNiAyLjk2OWw2LjM3NS0xLjA5NGMxNC42NyA0NS40ODMgNDUuNDE0IDgyLjI0NSA4NC4zNDQgMTA1LjMxMmwtMi42NTYgNi4zNzVjLjk1NyAyLjQ3NSAyLjAxMyA1LjgyNSAxLjMgOC4yNjktMi44MzkgNy4zNjEtNy43MDEgMTUuMTMxLTEzLjIzOCAyMy43OTMtMi42ODEgNC4wMDItNS40MjUgNy4xMDgtNy44NDQgMTEuNjg4LS41NzkgMS4wOTYtMS4zMTYgMi43NzktMS44NzUgMy45MzgtMy43NTkgOC4wNDItMS4wMDIgMTcuMzA1IDYuMjE5IDIwLjc4MSA3LjI2NiAzLjQ5OCAxNi4yODQtLjE5MSAyMC4xODctOC4yNS4wMDYtLjAxMS4wMjYtLjAyLjAzMS0uMDMxcy0uMDA0LS4wMjMgMC0uMDMxYy41NTYtMS4xNDMgMS4zNDQtMi42NDQgMS44MTMtMy43MTkgMi4wNzItNC43NDcgMi43NjItOC44MTUgNC4yMTktMTMuNDA2IDMuODctOS43MiA1Ljk5Ni0xOS45MTkgMTEuMzIzLTI2LjI3NCAxLjQ1OS0xLjc0IDMuODM3LTIuNDA5IDYuMzAyLTMuMDdsMy4zMTMtNmMzMy45MzggMTMuMDI3IDcxLjkyNyAxNi41MjIgMTA5Ljg3NSA3LjkwNmExODkuNzcgMTg5Ljc3IDAgMCAwIDI1LjA5NC03LjU2MmwzLjEyNSA1LjYyNWMyLjUwNi44MTUgNS4yNCAxLjIzNiA3LjQ2OSA0LjUzMSAzLjk4NSA2LjgwOSA2LjcxMSAxNC44NjQgMTAuMDMxIDI0LjU5NCAxLjQ1NyA0LjU5MSAyLjE3OCA4LjY1OSA0LjI1IDEzLjQwNi40NzIgMS4wODIgMS4yNTYgMi42MDUgMS44MTMgMy43NSAzLjg5NSA4LjA4NSAxMi45NDIgMTEuNzg3IDIwLjIxOSA4LjI4MSA3LjIxOS0zLjQ3OCA5Ljk4LTEyLjc0IDYuMjE5LTIwLjc4MWwtMS45MDYtMy45MzdjLTIuNDE5LTQuNTgtNS4xNjMtNy42NTQtNy44NDQtMTEuNjU2LTUuNTM3LTguNjYyLTEwLjEzLTE1Ljg1OC0xMi45NjktMjMuMjE5LTEuMTg3LTMuNzk3LjItNi4xNTggMS4xMjUtOC42MjUtLjU1NC0uNjM1LTEuNzM5LTQuMjItMi40MzctNS45MDYgNDAuNDU3LTIzLjg4OCA3MC4yOTktNjIuMDIxIDg0LjMxMy0xMDYuMDYyIDEuODkyLjI5NyA1LjE4Mi44NzkgNi4yNSAxLjA5NCAyLjItMS40NTEgNC4yMjItMy4zNDQgOC4xODgtMy4wMzEgNy44MDggMS4xMjkgMTUuODIzIDQuMDMgMjUuNSA3LjUgNC40OTggMS43MjMgOC4xMjIgMy43MjMgMTMuMTI1IDUuMDYzIDEuMDU3LjI4MyAyLjU3Mi41NDcgMy43ODEuODEzLjA5Ny4wMjQuMTgzLjA3MS4yODEuMDk0LjA2NS4wMTUuMTU2LjAxNy4yMTkuMDMxIDguNjcyIDEuODY3IDE3LjA5NC0yLjg3OSAxOC44NzUtMTAuNjg3cy0zLjc1NC0xNS43MzItMTIuMzc1LTE3LjgxMmMtMS4yNTQtLjI4NS0zLjAzMi0uNzY5LTQuMjUtMS01LjA4OS0uOTY0LTkuMjMxLS43MjYtMTQuMDMxLTEuMTI1LTEwLjIyNS0xLjA3MS0xOC42OTMtMS45NDMtMjYuMjE5LTQuMzEyLTMuMDY4LTEuMTktNS4yNTEtNC44NDEtNi4zMTMtNi4zNDRsLTUuOTA2LTEuNzE5YzMuMDYyLTIyLjE1NCAyLjIzNy00NS4yMTEtMy4wNjItNjguMjgxLTUuMzQ4LTIzLjI4NS0xNC44LTQ0LjU4MS0yNy40MDYtNjMuMzQ0bDUuMTg4LTQuNjU2Yy4yMzctMi42MjQuMDMzLTUuMzc2IDIuNzUtOC4yODEgNS43NTEtNS40MDEgMTMuMDAzLTkuODc5IDIxLjc1LTE1LjI4MSA0LjE1Mi0yLjQ0MyA3Ljk5LTQuMDE3IDEyLjE1Ni03LjA5NC45NDItLjY5NiAyLjIyOS0xLjc5OCAzLjIxOS0yLjU5NCA3LjAxNS01LjU5NiA4LjYzMS0xNS4yNDggMy41OTQtMjEuNTYycy0xNC43OTctNi45MDktMjEuODEyLTEuMzEyYy0uOTk5Ljc5MS0yLjM1NCAxLjgyMy0zLjI1IDIuNTk0LTMuOTI3IDMuMzc4LTYuMzUxIDYuNzE0LTkuNjU2IDEwLjIxOS03LjIxMiA3LjMyNi0xMy4xNzQgMTMuNDM4LTE5LjcxOSAxNy44NDQtMi44MzYgMS42NTEtNi45OSAxLjA4LTguODc1Ljk2OWwtNS41NjIgMy45NjljLTMxLjcxOS0zMy4yNjEtNzQuOTA1LTU0LjUyNS0xMjEuNDA2LTU4LjY1NmwtLjM0NC02LjUzMWMtMS45MDQtMS44MjItNC4yMDMtMy4zNzctNC43ODEtNy4zMTItLjYzNi03Ljg2NC40MjYtMTYuMzI1IDEuNjU2LTI2LjUzMS42NzktNC43NjkgMS44MDctOC43MyAyLTEzLjkwNi4wNDQtMS4xNzctLjAyNi0yLjg4NC0uMDMxLTQuMTU2LS4wMDEtOC45NzQtNi41NDgtMTYuMjUxLTE0LjYyNS0xNi4yNXptLTE4LjMxMiAxMTMuNDM4bC00LjM0NCA3Ni43MTktLjMxMi4xNTZjLS4yOTEgNi44NjMtNS45NCAxMi4zNDQtMTIuODc1IDEyLjM0NGExMi44MiAxMi44MiAwIDAgMS03LjU5NC0yLjQ2OWwtLjEyNS4wNjMtNjIuOTA2LTQ0LjU5NGMxOS4zMzQtMTkuMDExIDQ0LjA2My0zMy4wNiA3Mi41NjItMzkuNTMxIDUuMjA2LTEuMTgyIDEwLjQxLTIuMDU5IDE1LjU5NC0yLjY4N3ptMzYuNjU2IDBjMzMuMjczIDQuMDkyIDY0LjA0NSAxOS4xNTkgODcuNjI1IDQyLjI1bC02Mi41IDQ0LjMxMy0uMjE5LS4wOTRhMTIuOTEgMTIuOTEgMCAwIDEtMTcuNjg3LTIuMzc1Yy0xLjc3MS0yLjIyMS0yLjcwMS00LjgzMi0yLjgxMi03LjQ2OWwtLjA2Mi0uMDMxek0yMzIuMTI2IDI4My42Mmw1Ny40MzcgNTEuMzc1LS4wNjIuMzEzYTEyLjg4IDEyLjg4IDAgMCAxIDEuNjI1IDE3Ljc1IDEyLjg5IDEyLjg5IDAgMCAxLTYuNjg3IDQuNDA2bC0uMDYyLjI1LTczLjYyNSAyMS4yNWMtMy43NDctMzQuMjY1IDQuMzI5LTY3LjU3NCAyMS4zNzUtOTUuMzQ0em0yNTguMTU2LjAzMWM4LjUzNCAxMy44MzMgMTQuOTk3IDI5LjI4MiAxOC44NDQgNDYuMDMxIDMuODAxIDE2LjU0OCA0Ljc1NSAzMy4wNjcgMy4xODggNDkuMDMxbC03NC0yMS4zMTItLjA2Mi0uMzEyYy02LjYyNy0xLjgxMS0xMC42OTktOC41NTItOS4xNTYtMTUuMzEyLjYzMi0yLjc3IDIuMTAyLTUuMTEzIDQuMDk0LTYuODQ0bC0uMDMxLS4xNTYgNTcuMTI1LTUxLjEyNXptLTE0MC42NTYgNTUuMzEzaDIzLjUzMWwxNC42MjUgMTguMjgxLTUuMjUgMjIuODEzLTIxLjEyNSAxMC4xNTYtMjEuMTg3LTEwLjE4Ny01LjI1LTIyLjgxMnptNzUuNDM4IDYyLjU2M2ExMi44MyAxMi44MyAwIDAgMSAyLjk2OS4yMTlsLjEyNS0uMTU2IDc2LjE1NiAxMi44NzVjLTExLjE0NiAzMS4zMTMtMzIuNDczIDU4LjQ0LTYwLjk2OSA3Ni41OTRsLTI5LjU2Mi03MS40MDYuMDk0LS4xMjVjLTIuNzE2LTYuMzEuMDAyLTEzLjcxIDYuMjUtMTYuNzE5IDEuNi0uNzcgMy4yNzEtMS4xOTcgNC45MzgtMS4yODF6bS0xMjcuOTA2LjMxM2ExMi45IDEyLjkgMCAwIDEgMTIuMzc1IDEwLjAzMSAxMi43NyAxMi43NyAwIDAgMS0uNzE5IDcuOTM4bC4yMTkuMjgxLTI5LjI1IDcwLjY4OGMtMjcuMzQ3LTE3LjU0OS00OS4xMjktNDMuODI0LTYwLjc4MS03Ni4wNjJsNzUuNS0xMi44MTIuMTI1LjE1NmMuODQ1LS4xNTUgMS43MDEtLjIzIDIuNTMxLS4yMTl6bTYzLjc4MSAzMC45NjljMi4wMjQtLjA3NCA0LjA3OS4zNDEgNi4wMzEgMS4yODEgMi41NiAxLjIzMyA0LjUzNyAzLjE3MyA1Ljc4MSA1LjVoLjI4MWwzNy4yMTkgNjcuMjVjLTQuODMgMS42MTktOS43OTYgMy4wMDMtMTQuODc1IDQuMTU2LTI4LjQ2NSA2LjQ2My01Ni44MzkgNC41MDUtODIuNTMxLTQuMjVsMzcuMTI1LTY3LjEyNWguMDYzYTEyLjkxIDEyLjkxIDAgMCAxIDEwLjkwNi02LjgxMnoiIHN0cm9rZT0ibm9uZSIgc3Ryb2tlLXdpZHRoPSIuMjUiLz4mI3hhOzwvc3ZnPg==;fontColor=default;labelPosition=center;align=center;" vertex="1" parent="1">
          <mxGeometry x="840" y="31" width="40" height="38" as="geometry" />
        </mxCell>
        <mxCell id="hrem9brc0uJo8NUHdfwz-24" value="Github" style="shape=image;verticalLabelPosition=bottom;labelBackgroundColor=default;verticalAlign=top;aspect=fixed;imageAspect=0;editableCssRules=.*;image=data:image/svg+xml,PHN2ZyB4bWxucz0iaHR0cDovL3d3dy53My5vcmcvMjAwMC9zdmciIHZpZXdCb3g9IjMuNjExOTk5NTExNzE4NzUgNS4xMDMwMDAxNjQwMzE5ODIgMTIwLjc3NzAwMDQyNzI0NjEgMTE3Ljc5Mzc4NTA5NTIxNDg0IiB3aWR0aD0iMTIwLjc3NzAwMDQyNzI0NjEiIGhlaWdodD0iMTE3Ljc5Mzc4NTA5NTIxNDg0Ij48ZyBmaWxsPSIjMTgxNjE2Ij48cGF0aCBkPSJNNjQgNS4xMDNjLTMzLjM0NyAwLTYwLjM4OCAyNy4wMzUtNjAuMzg4IDYwLjM4OCAwIDI2LjY4MiAxNy4zMDMgNDkuMzE3IDQxLjI5NyA1Ny4zMDMgMy4wMTcuNTYgNC4xMjUtMS4zMSA0LjEyNS0yLjkwNSAwLTEuNDQtLjA1Ni02LjE5Ny0uMDgyLTExLjI0My0xNi44IDMuNjUzLTIwLjM0NS03LjEyNS0yMC4zNDUtNy4xMjUtMi43NDctNi45OC02LjcwNS04LjgzNi02LjcwNS04LjgzNi01LjQ4LTMuNzQ4LjQxMy0zLjY3LjQxMy0zLjY3IDYuMDYzLjQyNSA5LjI1NyA2LjIyMyA5LjI1NyA2LjIyMyA1LjM4NiA5LjIzIDE0LjEyNyA2LjU2MiAxNy41NzMgNS4wMi41NDItMy45MDMgMi4xMDctNi41NjggMy44MzQtOC4wNzYtMTMuNDEzLTEuNTI1LTI3LjUxNC02LjcwNC0yNy41MTQtMjkuODQzIDAtNi41OTMgMi4zNi0xMS45OCA2LjIyMy0xNi4yMS0uNjI4LTEuNTItMi42OTUtNy42NjIuNTg0LTE1Ljk4IDAgMCA1LjA3LTEuNjIzIDE2LjYxIDYuMTlDNTMuNyAzNSA1OC44NjcgMzQuMzI3IDY0IDM0LjMwNGM1LjEzLjAyMyAxMC4zLjY5NCAxNS4xMjcgMi4wMzMgMTEuNTI2LTcuODEzIDE2LjU5LTYuMTkgMTYuNTktNi4xOSAzLjI4NyA4LjMxNyAxLjIyIDE0LjQ2LjU5MyAxNS45OCAzLjg3MiA0LjIzIDYuMjE1IDkuNjE3IDYuMjE1IDE2LjIxIDAgMjMuMTk0LTE0LjEyNyAyOC4zLTI3LjU3NCAyOS43OTYgMi4xNjcgMS44NzQgNC4wOTcgNS41NSA0LjA5NyAxMS4xODMgMCA4LjA4LS4wNyAxNC41ODMtLjA3IDE2LjU3MiAwIDEuNjA3IDEuMDg4IDMuNDkgNC4xNDggMi44OTcgMjMuOTgtNy45OTQgNDEuMjYzLTMwLjYyMiA0MS4yNjMtNTcuMjk0QzEyNC4zODggMzIuMTQgOTcuMzUgNS4xMDQgNjQgNS4xMDR6IiBjbGlwLXJ1bGU9ImV2ZW5vZGQiIGZpbGwtcnVsZT0iZXZlbm9kZCIvPjxwYXRoIGQ9Ik0yNi40ODQgOTEuODA2Yy0uMTMzLjMtLjYwNS4zOS0xLjAzNS4xODUtLjQ0LS4xOTYtLjY4NS0uNjA1LS41NDMtLjkwNi4xMy0uMzEuNjAzLS4zOTUgMS4wNC0uMTg4LjQ0LjE5Ny42OS42MS41MzcuOTF6bTIuNDQ2IDIuNzI5Yy0uMjg3LjI2Ny0uODUuMTQzLTEuMjMyLS4yOC0uMzk2LS40Mi0uNDctLjk4My0uMTc3LTEuMjU0LjI5OC0uMjY2Ljg0NC0uMTQgMS4yNC4yOC4zOTQuNDI2LjQ3Mi45ODQuMTcgMS4yNTV6TTMxLjMxMiA5OC4wMTJjLS4zNy4yNTgtLjk3Ni4wMTctMS4zNS0uNTItLjM3LS41MzgtLjM3LTEuMTgzLjAxLTEuNDQuMzczLS4yNTguOTctLjAyNSAxLjM1LjUwNy4zNjguNTQ1LjM2OCAxLjE5LS4wMSAxLjQ1MnptMy4yNjEgMy4zNjFjLS4zMy4zNjUtMS4wMzYuMjY3LTEuNTUyLS4yMy0uNTI3LS40ODctLjY3NC0xLjE4LS4zNDMtMS41NDQuMzM2LS4zNjYgMS4wNDUtLjI2NCAxLjU2NC4yMy41MjcuNDg2LjY4NiAxLjE4LjMzMyAxLjU0M3ptNC41IDEuOTUxYy0uMTQ3LjQ3My0uODI1LjY4OC0xLjUxLjQ4Ni0uNjgzLS4yMDctMS4xMy0uNzYtLjk5LTEuMjM4LjE0LS40NzcuODIzLS43IDEuNTEyLS40ODUuNjgzLjIwNiAxLjEzLjc1Ni45ODggMS4yMzd6bTQuOTQzLjM2MWMuMDE3LjQ5OC0uNTYzLjkxLTEuMjguOTItLjcyMy4wMTctMS4zMDgtLjM4Ny0xLjMxNS0uODc3IDAtLjUwMy41NjgtLjkxIDEuMjktLjkyNC43MTctLjAxMyAxLjMwNi4zODcgMS4zMDYuODh6bTQuNTk4LS43ODJjLjA4Ni40ODUtLjQxMy45ODQtMS4xMjYgMS4xMTctLjcuMTMtMS4zNS0uMTcyLTEuNDQtLjY1My0uMDg2LS40OTguNDIyLS45OTcgMS4xMjItMS4xMjYuNzE0LS4xMjMgMS4zNTQuMTcgMS40NDQuNjYzem0wIDAiLz48L2c+PC9zdmc+;imageBackground=light-dark(#FFFFFF,#FFFFFF);" vertex="1" parent="1">
          <mxGeometry x="514.49" y="180" width="41.02" height="40" as="geometry" />
        </mxCell>
      </root>
    </mxGraphModel>
  </diagram>
</mxfile>
